# xmcd
#
# Track frame offsets:
#	150
#	13398
#	24309
#	35995
#	48838
#	60903
#	73594
#	84928
#	95989
#	107743
#	119231
#	132714
#	143936
#	155254
#	166158
#	178188
#	187749
#	199109
#	209988
#	220487
#	229920
#	241138
#	252881
#	263622
#	273581
#	284350
#	295216
#	306663
#	316866
#	327061
#	338363
#
# Disc length: 4632 seconds
#
# Revision: 1852785471
# Processed by: cddbd v1.5.2PL0 Copyright (c) Steve Scherf et al.
# Submitted via: EZCDAudioConverter 8.3.2.1
#
DISCID=dd12161f
DTITLE=Little Junior Parker -   Rocks
DYEAR=2008
DGENRE=Blues
TTITLE0=Feelin Good
TTITLE1=Mystery Train
TTITLE2=Love My Baby
TTITLE3=Can't Understand
TTITLE4=Please Baby Please
TTITLE5=I Wanna Ramble
TTITLE6=Mother In Law Blues
TTITLE7=That's My Baby
TTITLE8=Next Time You See Me
TTITLE9=My Dolly Bee
TTITLE10=Pretty Baby
TTITLE11=Peaches
TTITLE12=Pretty Little Doll
TTITLE13=Wondering
TTITLE14=Barefoot Rock
TTITLE15=What Did I Do
TTITLE16=Sweet Home Chicago
TTITLE17=Sometimes
TTITLE18=Dangerous World
TTITLE19=You're On My Mind
TTITLE20=The Next Time
TTITLE21=Driving Wheel
TTITLE22=Seven Days
TTITLE23=How Long Can This Go On
TTITLE24=Annie Get Your Yo-Yo
TTITLE25=Mary Jo
TTITLE26=I Feel Alright Again
TTITLE27=Sweeter As The Days Go By
TTITLE28=Yonders Wall
TTITLE29=Crying For My Baby
TTITLE30=If You Can't Take It 
EXTD=
EXTT0=
EXTT1=
EXTT2=
EXTT3=
EXTT4=
EXTT5=
EXTT6=
EXTT7=
EXTT8=
EXTT9=
EXTT10=
EXTT11=
EXTT12=
EXTT13=
EXTT14=
EXTT15=
EXTT16=
EXTT17=
EXTT18=
EXTT19=
EXTT20=
EXTT21=
EXTT22=
EXTT23=
EXTT24=
EXTT25=
EXTT26=
EXTT27=
EXTT28=
EXTT29=
EXTT30=
PLAYORDER=
